<svg width="21" height="24" viewBox="0 0 21 24" fill="none" xmlns="http://www.w3.org/2000/svg">
<path d="M10.2857 21.7143C8.16398 21.7143 6.12915 20.8714 4.62886 19.3711C3.12857 17.8708 2.28571 15.836 2.28571 13.7143C2.28571 11.5926 3.12857 9.55772 4.62886 8.05743C6.12915 6.55714 8.16398 5.71429 10.2857 5.71429C12.4074 5.71429 14.4423 6.55714 15.9426 8.05743C17.4429 9.55772 18.2857 11.5926 18.2857 13.7143C18.2857 15.836 17.4429 17.8708 15.9426 19.3711C14.4423 20.8714 12.4074 21.7143 10.2857 21.7143ZM18.32 7.30286L19.9429 5.68C19.4286 5.09714 18.9143 4.57143 18.3314 4.06857L16.7086 5.71429C14.9371 4.27429 12.7086 3.42857 10.2857 3.42857C7.55777 3.42857 4.94156 4.51224 3.01262 6.44119C1.08367 8.37013 0 10.9863 0 13.7143C0 16.4422 1.08367 19.0584 3.01262 20.9874C4.94156 22.9163 7.55777 24 10.2857 24C16 24 20.5714 19.3943 20.5714 13.7143C20.5714 11.2914 19.7257 9.06286 18.32 7.30286ZM9.14286 14.8571H11.4286V8H9.14286M13.7143 0H6.85714V2.28571H13.7143V0Z" fill="#747474"/>
</svg>
