<svg width="24" height="24" viewBox="0 0 24 24" fill="none" xmlns="http://www.w3.org/2000/svg">
<path d="M22.1257 7.47348L23.6346 8.98232L20.2986 12.3065L16.5265 8.54617L8.54617 16.5265L12.3065 20.2986L8.98232 23.6346L7.47348 22.1257L5.58743 24L3.32417 21.7485C3.24558 21.8193 3.16699 21.9018 3.08841 21.9961C3.00982 22.0904 2.92338 22.1768 2.82908 22.2554C2.73477 22.334 2.63654 22.4047 2.53438 22.4676C2.43222 22.5305 2.31827 22.5619 2.19253 22.5619C1.98821 22.5619 1.81139 22.4872 1.66208 22.3379C1.51277 22.1886 1.43811 22.0118 1.43811 21.8075C1.43811 21.6896 1.46562 21.5796 1.52063 21.4774C1.57564 21.3752 1.64637 21.277 1.73281 21.1827C1.81925 21.0884 1.90963 21.002 2.00393 20.9234C2.09823 20.8448 2.18075 20.7623 2.25147 20.6758L0 18.4126L1.87426 16.5265L0.365422 15.0177L3.70138 11.6935L7.47348 15.4538L15.4538 7.47348L11.6935 3.70138L15.0177 0.365422L16.5265 1.87426L18.4126 0L20.6758 2.25147C20.7544 2.18075 20.833 2.09823 20.9116 2.00393C20.9902 1.90963 21.0766 1.82318 21.1709 1.7446C21.2652 1.66601 21.3635 1.59528 21.4656 1.53242C21.5678 1.46955 21.6817 1.43811 21.8075 1.43811C22.0118 1.43811 22.1886 1.51277 22.3379 1.66208C22.4872 1.81139 22.5619 1.98821 22.5619 2.19253C22.5619 2.31041 22.5344 2.42043 22.4794 2.52259C22.4244 2.62475 22.3536 2.72299 22.2672 2.81729C22.1807 2.91159 22.0904 2.99804 21.9961 3.07662C21.9018 3.15521 21.8193 3.23772 21.7485 3.32417L24 5.58743L22.1257 7.47348ZM6.40079 21.053L2.94695 17.5992L2.1336 18.4126L5.58743 21.8664L6.40079 21.053ZM10.1847 20.2986L3.70138 13.8153L2.51081 15.0177L8.98232 21.4892L10.1847 20.2986ZM17.5992 2.94695L21.053 6.40079L21.8664 5.58743L18.4126 2.1336L17.5992 2.94695ZM21.4892 8.98232L15.0177 2.51081L13.8153 3.70138L20.2986 10.1847L21.4892 8.98232Z" fill="#747474"/>
</svg>
